<svg xmlns="http://www.w3.org/2000/svg" xmlns:xlink="http://www.w3.org/1999/xlink" width="1920" height="1080" viewBox="0 0 1920 1080">
  <defs>
    <linearGradient id="linear-gradient" x1="0.5" x2="2.142" y2="1.395" gradientUnits="objectBoundingBox">
      <stop offset="0" stop-color="#fe524d"/>
      <stop offset="1" stop-color="#8b2f2c"/>
    </linearGradient>
    <clipPath id="clip-Web_1920_1">
      <rect width="1920" height="1080"/>
    </clipPath>
  </defs>
  <g id="Web_1920_1" data-name="Web 1920 – 1" clip-path="url(#clip-Web_1920_1)">
    <rect width="1920" height="1080" fill="#fff"/>
    <g id="Group_27" data-name="Group 27">
      <g id="Group_26" data-name="Group 26">
        <g id="Group_25" data-name="Group 25">
          <path id="Path_26" data-name="Path 26" d="M1174.725,562.178h348.716a27.619,27.619,0,0,0,3.364-.208c12.915-1.592,88.6-13.1,53.823-61.179a27.1,27.1,0,0,0-9.126-7.936,79.662,79.662,0,0,0-21.068-7.988,27.6,27.6,0,0,1-21.805-22.745c-3.713-22.641-16.964-51.495-61.49-42.151a27.064,27.064,0,0,1-27.791-11.437c-23.836-35.16-87.8-104.771-166.445,9.58a28.049,28.049,0,0,1-19.467,11.923c-15.863,2.064-43.6,12.759-56.007,60.593a26.8,26.8,0,0,1-17.336,18.735c-15.438,5.253-37.106,16.264-30.677,35.547C1152.953,555.522,1163.539,562.178,1174.725,562.178Z" transform="translate(-813.253 406.819)" fill="#42d084" opacity="0.5"/>
          <path id="Path_27" data-name="Path 27" d="M1156.949,423.175h114.545a9.068,9.068,0,0,0,1.1-.068c4.242-.523,29.1-4.3,17.68-20.1a8.9,8.9,0,0,0-3-2.607,26.17,26.17,0,0,0-6.921-2.624,9.065,9.065,0,0,1-7.162-7.471c-1.22-7.437-5.572-16.915-20.2-13.846a8.89,8.89,0,0,1-9.129-3.757c-7.83-11.549-28.841-34.415-54.673,3.147a9.214,9.214,0,0,1-6.395,3.916c-5.211.678-14.32,4.191-18.4,19.9a8.8,8.8,0,0,1-5.695,6.154c-5.071,1.725-12.188,5.342-10.077,11.676A8.666,8.666,0,0,0,1156.949,423.175Z" transform="translate(-875.253 539.819)" fill="#34ad6d"/>
          <path id="Path_28" data-name="Path 28" d="M1164.564,482.72h214.859a17.017,17.017,0,0,0,2.073-.128c7.957-.981,54.588-8.071,33.163-37.695a16.7,16.7,0,0,0-5.623-4.89,49.084,49.084,0,0,0-12.981-4.922,17,17,0,0,1-13.435-14.014c-2.288-13.95-10.452-31.728-37.887-25.971a16.675,16.675,0,0,1-17.123-7.047c-14.687-21.663-54.1-64.554-102.554,5.9a17.282,17.282,0,0,1-11.994,7.346c-9.774,1.272-26.862,7.862-34.508,37.334a16.513,16.513,0,0,1-10.682,11.543c-9.512,3.237-22.863,10.021-18.9,21.9C1151.149,478.619,1157.672,482.72,1164.564,482.72Z" transform="translate(-113.253 509.819)" fill="#34ad6d"/>
          <g id="Group_4" data-name="Group 4" transform="translate(-790.512 -938.176) rotate(41)">
            <g id="Group_6" data-name="Group 6" transform="translate(-276 45)">
              <g id="Group_5" data-name="Group 5" transform="translate(2485.642 333.572)">
                <path id="Path_29" data-name="Path 29" d="M2501.081,333.745c1.045,2.249,7.879,17.785-.094,23.267a.3.3,0,0,1-.078.039c-.7.226-9.747,2.723-15.257-18.259a.3.3,0,0,1,.357-.365c1.657.4,7.2,2.083,9.947,7.19a.3.3,0,0,0,.556-.118c.208-2.855,1.041-10.2,4.16-11.892A.3.3,0,0,1,2501.081,333.745Z" transform="translate(-2485.642 -333.572)" fill="#fe524d"/>
                <path id="Path_30" data-name="Path 30" d="M2520,339.929V335.45a.354.354,0,0,1,.57-.281l3.666,2.811a1.959,1.959,0,0,1,.736,1.91c-.323,1.755-.839,4.916-.467,5.412.43.574-2.463-3.245-3.866-4.185A1.43,1.43,0,0,1,2520,339.929Z" transform="translate(-2514.047 -334.831)" fill="#fe524d"/>
              </g>
            </g>
          </g>
          <g id="Group_7" data-name="Group 7" transform="translate(-1888 516)">
            <g id="Group_6-2" data-name="Group 6" transform="translate(2209.642 378.572)">
              <g id="Group_5-2" data-name="Group 5">
                <path id="Path_29-2" data-name="Path 29" d="M2493.092,333.655c.5,1.085,3.8,8.582-.045,11.227a.143.143,0,0,1-.038.019c-.336.109-4.7,1.314-7.362-8.81a.143.143,0,0,1,.172-.176,7.566,7.566,0,0,1,4.8,3.469.143.143,0,0,0,.268-.057c.1-1.377.5-4.92,2.007-5.738A.143.143,0,0,1,2493.092,333.655Z" transform="translate(-2485.642 -333.572)" fill="#fe524d"/>
                <path id="Path_30-2" data-name="Path 30" d="M2520,337.427v-2.161a.171.171,0,0,1,.275-.136l1.769,1.356a.945.945,0,0,1,.355.921,7.909,7.909,0,0,0-.225,2.611,14.812,14.812,0,0,0-1.865-2.019A.69.69,0,0,1,2520,337.427Z" transform="translate(-2517.127 -334.968)" fill="#fe524d"/>
              </g>
            </g>
          </g>
          <g id="Group_8" data-name="Group 8" transform="translate(-1112 520)">
            <g id="Group_6-3" data-name="Group 6" transform="translate(2209.642 378.572)">
              <g id="Group_5-3" data-name="Group 5">
                <path id="Path_29-3" data-name="Path 29" d="M2496.35,333.692c.725,1.56,5.465,12.336-.065,16.138a.2.2,0,0,1-.054.027c-.483.157-6.761,1.888-10.582-12.665a.206.206,0,0,1,.247-.253c1.149.277,4.995,1.445,6.9,4.987a.205.205,0,0,0,.385-.082c.145-1.98.722-7.073,2.886-8.249A.206.206,0,0,1,2496.35,333.692Z" transform="translate(-2485.642 -333.572)" fill="#fe524d"/>
                <path id="Path_30-3" data-name="Path 30" d="M2520,338.448v-3.106a.246.246,0,0,1,.4-.195l2.543,1.95a1.359,1.359,0,0,1,.51,1.324c-.224,1.218-.582,3.41-.324,3.754a21.283,21.283,0,0,0-2.681-2.9A.992.992,0,0,1,2520,338.448Z" transform="translate(-2515.871 -334.912)" fill="#fe524d"/>
              </g>
            </g>
          </g>
        </g>
      </g>
    </g>
    <path id="Path_1" data-name="Path 1" d="M613,267s31-32,34-15l-7,29s-13,5-16,4S613,267,613,267Z" transform="translate(357 360.57)" fill="#f6c180"/>
    <path id="Path_2" data-name="Path 2" d="M595,389s34.527,27.814,16.23,40.235a6.946,6.946,0,0,1-2.4,1.031c-4.375.965-19.4,4.015-16.831-.266l3-8s-4-13-26-11S595,389,595,389Z" transform="translate(357 360.57)" fill="#ffdaad"/>
    <path id="Path_3" data-name="Path 3" d="M413,377s28.181,58.848,34.739,79.957a9.286,9.286,0,0,1-1.684,8.642L413,506l29,29,89-46L463,352Z" transform="translate(347 361.57)" fill="#353538"/>
    <path id="Path_4" data-name="Path 4" d="M574,189l2,20h-5s-5,12-10,11,0,42,0,42l-54-57Z" transform="translate(361 360.57)" fill="#ffdaad"/>
    <path id="Path_5" data-name="Path 5" d="M420.344,397.088c19.074,14.936,49.548,41.59,61.686,67.731a7.483,7.483,0,0,1,.611,4.38c-1.578,9.522-8.15,47.686-15.5,68.988a7.385,7.385,0,0,0,6.97,9.813h29.326a7.384,7.384,0,0,0,5.782-2.792l45.777-57.644a42.021,42.021,0,0,0,8.763-20.719c1.917-14.739,2.6-42.176-7.29-83.869a7.381,7.381,0,0,0-7.572-5.653l-124.378,6.59A7.381,7.381,0,0,0,420.344,397.088Z" transform="translate(347 361.57)" fill="#454548"/>
    <path id="Path_6" data-name="Path 6" d="M561,262l22,32,32-32,19,32s-17,63-73,83Z" transform="translate(357 360.57)" fill="#d44a46"/>
    <path id="Path_45" data-name="Path 45" d="M990.306,1596.57s39.754,37.131,39.754,76.272-39.754,114.6-39.754,114.6" transform="translate(-164 -847)" fill="none" stroke="#fff" stroke-width="1" opacity="0.3"/>
    <path id="Path_7" data-name="Path 7" d="M594.866,189.745a1.38,1.38,0,0,1-.509,2.585c-12.7,1.319-46.521,7.832-38.357,39.67,10,39-1,5-1,5s28,29,21,174L375,398s-2.935-145.754,174.054-227.314a12.909,12.909,0,0,1,11.58.387Z" transform="translate(357 360.57)" fill="#fe524d"/>
    <path id="Path_8" data-name="Path 8" d="M574.734,419.493l25.735-24.176a4.777,4.777,0,0,0,.165-6.8l-45.74-47.345a34.422,34.422,0,0,1-9.34-19.147c-3.04-21.721-10.539-68.464-19.282-72.713a17.184,17.184,0,0,1-3.113-1.851C516.235,242.052,491.375,226.125,476,262c-14.355,33.495-2,80.983,3.6,98.842a24.945,24.945,0,0,0,8.169,11.995c11.163,8.978,38.23,29.037,78.536,47.987A7.6,7.6,0,0,0,574.734,419.493Z" transform="translate(357 360.57)" fill="url(#linear-gradient)"/>
    <path id="Path_9" data-name="Path 9" d="M413,501l34,34-29,13s24,13,7,37l-59-37Z" transform="translate(347 361.57)" fill="#ffc334"/>
    <path id="Path_12" data-name="Path 12" d="M511.971,543,465,539l-22,55h77s3-22-23-19Z" transform="translate(347 361.57)" fill="#ffc334"/>
    <path id="Path_19" data-name="Path 19" d="M426.5,514.5l-46.668,42.174L366,548l47-47Z" transform="translate(347 361.57)" fill="#ff8801" opacity="0.2"/>
    <path id="Path_20" data-name="Path 20" d="M465,539l-22,55h17l21.553-53.59Z" transform="translate(347 361.57)" fill="#ff8801" opacity="0.2"/>
    <path id="Path_22" data-name="Path 22" d="M1043.219,680.8" transform="translate(1 -1)" fill="none" stroke="#417df9" stroke-width="9"/>
    <g id="Group_10" data-name="Group 10">
      <g id="Group_9" data-name="Group 9">
        <text id="_101011" data-name="101011" transform="translate(386 389)" fill="#4e98fc" font-size="30" font-family="Nunito-Bold, Nunito" font-weight="700"><tspan x="0" y="0">101011</tspan></text>
        <text id="_101011-2" data-name="101011" transform="translate(386 440)" fill="#4e98fc" font-size="30" font-family="Nunito-Bold, Nunito" font-weight="700"><tspan x="0" y="0">101011</tspan></text>
        <text id="_101011-3" data-name="101011" transform="translate(386 491)" fill="#4e98fc" font-size="30" font-family="Nunito-Bold, Nunito" font-weight="700"><tspan x="0" y="0">101011</tspan></text>
        <text id="_101011-4" data-name="101011" transform="translate(386 542)" fill="#4e98fc" font-size="30" font-family="Nunito-Bold, Nunito" font-weight="700"><tspan x="0" y="0">101011</tspan></text>
      </g>
    </g>
    <text id="_101011-5" data-name="101011" transform="translate(1396 389)" fill="#4e98fc" font-size="30" font-family="Nunito-Bold, Nunito" font-weight="700"><tspan x="0" y="0">101011</tspan></text>
    <text id="_101011-6" data-name="101011" transform="translate(1396 440)" fill="#4e98fc" font-size="30" font-family="Nunito-Bold, Nunito" font-weight="700"><tspan x="0" y="0">101011</tspan></text>
    <text id="_101011-7" data-name="101011" transform="translate(1396 491)" fill="#4e98fc" font-size="30" font-family="Nunito-Bold, Nunito" font-weight="700"><tspan x="0" y="0">101011</tspan></text>
    <text id="_101011-8" data-name="101011" transform="translate(1396 542)" fill="#4e98fc" font-size="30" font-family="Nunito-Bold, Nunito" font-weight="700"><tspan x="0" y="0">101011</tspan></text>
    <text id="_101011-9" data-name="101011" transform="translate(1262 491)" fill="#4e98fc" font-size="30" font-family="Nunito-Bold, Nunito" font-weight="700"><tspan x="0" y="0">101011</tspan></text>
    <text id="_101011-10" data-name="101011" transform="translate(1262 440)" fill="#4e98fc" font-size="30" font-family="Nunito-Bold, Nunito" font-weight="700"><tspan x="0" y="0">101011</tspan></text>
    <text id="_101011-11" data-name="101011" transform="translate(1262 389)" fill="#4e98fc" font-size="30" font-family="Nunito-Bold, Nunito" font-weight="700"><tspan x="0" y="0">101011</tspan></text>
    <g id="Group_12" data-name="Group 12">
      <g id="Group_11" data-name="Group 11">
        <text id="_101011-12" data-name="101011" transform="translate(534 542)" fill="#4e98fc" font-size="30" font-family="Nunito-Bold, Nunito" font-weight="700"><tspan x="0" y="0">101011</tspan></text>
        <text id="_101011-13" data-name="101011" transform="translate(534 491)" fill="#4e98fc" font-size="30" font-family="Nunito-Bold, Nunito" font-weight="700"><tspan x="0" y="0">101011</tspan></text>
        <text id="_101011-14" data-name="101011" transform="translate(534 440)" fill="#4e98fc" font-size="30" font-family="Nunito-Bold, Nunito" font-weight="700"><tspan x="0" y="0">101011</tspan></text>
        <text id="_1_1_0_0_1" data-name="1
1
0
0
1" transform="translate(686 431)" fill="#4e98fc" font-size="30" font-family="Nunito-Bold, Nunito" font-weight="700"><tspan x="0" y="0">1</tspan><tspan x="0" y="41">1</tspan><tspan x="0" y="82">0</tspan><tspan x="0" y="123">0</tspan><tspan x="0" y="164">1</tspan></text>
      </g>
    </g>
    <text id="_1_1_0_" data-name="1
1
0
" transform="translate(1171 570)" fill="#4e98fc" font-size="30" font-family="Nunito-Bold, Nunito" font-weight="700"><tspan x="0" y="0">1</tspan><tspan x="0" y="41">1</tspan><tspan x="0" y="82">0</tspan><tspan x="0" y="123"></tspan></text>
    <text id="_1_0" data-name="1
0" transform="translate(776 522)" fill="#4e98fc" font-size="30" font-family="Nunito-Bold, Nunito" font-weight="700"><tspan x="0" y="0">1</tspan><tspan x="0" y="41">0</tspan></text>
    <text id="_1" data-name="1" transform="translate(1189 369)" fill="#4e98fc" font-size="30" font-family="Nunito-Bold, Nunito" font-weight="700"><tspan x="0" y="0">1</tspan></text>
    <g id="Group_17" data-name="Group 17" transform="translate(-139 -1322)">
      <path id="Path_39" data-name="Path 39" d="M1077.261,710.461h423.3a2.191,2.191,0,0,0,.331-.017c4.689-.474,118.135-12.76,63.04-79.513a3.36,3.36,0,0,0-.788-.714c-3.725-2.382-30.815-19.031-51.748-13.057a3.565,3.565,0,0,1-4.644-3.467c.617-21.916-3.153-101.84-94.431-69.934a3.643,3.643,0,0,1-4.4-1.656c-12.434-22.761-103.942-176.251-220.123,6.546a3.516,3.516,0,0,1-3.227,1.662c-11.389-.908-67.278-.657-83.231,89.222a3.518,3.518,0,0,1-2.673,2.862c-11.486,2.57-62.458,15.838-52,47.19C1050.936,702.413,1063.735,710.461,1077.261,710.461Z" transform="translate(-341.023 989.502)" fill="#f2f2f2"/>
      <path id="Path_38" data-name="Path 38" d="M1076.615,705.41h414.757a2.142,2.142,0,0,0,.324-.016c4.595-.465,115.751-12.5,61.768-77.908a3.293,3.293,0,0,0-.772-.7c-3.65-2.334-30.193-18.647-50.7-12.793a3.493,3.493,0,0,1-4.55-3.4c.6-21.474-3.089-99.784-92.526-68.523a3.57,3.57,0,0,1-4.315-1.623c-12.183-22.3-101.844-172.695-215.681,6.414a3.445,3.445,0,0,1-3.162,1.628c-11.159-.89-65.921-.643-81.551,87.422a3.447,3.447,0,0,1-2.619,2.8c-11.254,2.518-61.2,15.519-50.955,46.238C1050.821,697.525,1063.362,705.41,1076.615,705.41Z" transform="translate(91.747 906.552)" fill="#d2d1d7"/>
      <path id="Path_40" data-name="Path 40" d="M1066.458,625.987h280.428a1.445,1.445,0,0,0,.219-.011c3.107-.314,78.262-8.453,41.763-52.676a2.224,2.224,0,0,0-.522-.473c-2.468-1.578-20.414-12.608-34.282-8.65a2.362,2.362,0,0,1-3.076-2.3c.409-14.519-2.089-67.467-62.559-46.33a2.413,2.413,0,0,1-2.917-1.1c-8.238-15.079-68.86-116.764-145.828,4.336a2.329,2.329,0,0,1-2.138,1.1c-7.545-.6-44.571-.435-55.139,59.108a2.331,2.331,0,0,1-1.771,1.9c-7.609,1.7-41.377,10.493-34.452,31.262C1049.018,620.656,1057.5,625.987,1066.458,625.987Z" transform="translate(-540.253 985.552)" fill="#d2d1d7"/>
    </g>
    <g id="Group_13" data-name="Group 13" transform="translate(0 204)">
      <g id="Group_9-2" data-name="Group 9">
        <text id="_10101" data-name="10101" transform="translate(386 389)" fill="#4e98fc" font-size="30" font-family="Nunito-Bold, Nunito" font-weight="700"><tspan x="0" y="0">10101</tspan></text>
        <text id="_101" data-name="101" transform="translate(386 440)" fill="#4e98fc" font-size="30" font-family="Nunito-Bold, Nunito" font-weight="700"><tspan x="0" y="0">101</tspan></text>
      </g>
    </g>
    <text id="_1011" data-name="1011" transform="translate(1432 593)" fill="#4e98fc" font-size="30" font-family="Nunito-Bold, Nunito" font-weight="700"><tspan x="0" y="0">1011</tspan></text>
    <g id="Group_20" data-name="Group 20" transform="translate(2)">
      <g id="Group_19" data-name="Group 19">
        <path id="Path_10" data-name="Path 10" d="M2.1,190.291h0c1.477.687,2.969.159,3.333-1.177L33.881,84.6,55.833,3.966A3.381,3.381,0,0,0,53.817.3h0C52.34-.386,50.848.141,50.485,1.478L.081,186.626A3.38,3.38,0,0,0,2.1,190.291Z" transform="matrix(0.966, -0.259, 0.259, 0.966, 937.324, 473.847)" fill="#353538" stroke="#353538" stroke-width="3"/>
        <g id="Group_15" data-name="Group 15" transform="translate(985.963 651.938)">
          <path id="Path_37" data-name="Path 37" d="M168.091,216.658a12.753,12.753,0,0,1-1.3-.068c-10.368-1.083-17.278-14.888-20.14-21.895-.861-2.11-.116-4.709,1.6-5.615h0c1.509-.8,3.237.011,3.994,1.866,2.686,6.576,8.273,16.86,15.069,17.559,5.714.584,12.113-5.672,18.595-18.148.948-1.824,2.84-2.381,4.3-1.233l.006.005a4.767,4.767,0,0,1,.982,5.685C183.659,209.322,175.9,216.658,168.091,216.658Z" transform="translate(-146.288 -188.527)" fill="#353538" stroke="#353538" stroke-width="1"/>
        </g>
      </g>
    </g>
    <g id="Group_14" data-name="Group 14" transform="matrix(0.921, -0.391, 0.391, 0.921, 261.538, 539.146)">
      <path id="Path_31" data-name="Path 31" d="M715.493,82.942l-11.982,19.831,9.09,1.327,4.138-20.673A.678.678,0,0,0,715.493,82.942Z" transform="translate(49.71 0.055)" fill="#353538"/>
      <path id="Path_32" data-name="Path 32" d="M534.211,116.769C578.375,95.063,838.533-19.2,875.3,281.208a3.03,3.03,0,0,1-4.563,2.977c-14.768-8.887-57.35-31.009-88.505-12.131a3,3,0,0,1-3.922-.735c-7.975-10.275-44.668-52.421-101.633-40.142a3.037,3.037,0,0,1-3.139-1.22c-6-8.6-35.62-47.559-81.737-50.022a3.046,3.046,0,0,1-2.728-2.035c-2.88-8.291-16.374-40.886-54.6-55.6A3.021,3.021,0,0,1,534.211,116.769Z" transform="translate(-0.921 -0.391)" fill="#ffc334"/>
      <g id="Group_21" data-name="Group 21" transform="translate(-0.921 -0.391)" opacity="0.45">
        <path id="Path_33" data-name="Path 33" d="M721.913,104.225c20.264,15.3,70.006,61.248,83.695,151.549a2.371,2.371,0,0,1-3.39,2.5c-11.938-5.93-47.6-21.727-70.947-11.653a2.364,2.364,0,0,1-3.3-2.567c3.4-18.945,13.982-90.248-9.589-136.867A2.364,2.364,0,0,1,721.913,104.225Z" transform="translate(57.952 8.213)" fill="#fe6263" opacity="0.15"/>
        <path id="Path_34" data-name="Path 34" d="M733.752,107.313c4.851,22.049,15.369,79.092,7.287,129.025a5.551,5.551,0,0,1-9.337,3.143c-11.451-11.081-36.952-29.513-78.923-28.1a5.546,5.546,0,0,1-4.849-8.572c13.193-20.2,45.969-68.459,76.51-98.255A5.552,5.552,0,0,1,733.752,107.313Z" transform="translate(35.751 7.972)" fill="#fe6263" opacity="0.15"/>
        <path id="Path_35" data-name="Path 35" d="M733.637,104.058c-17.016,18.721-66.433,74.2-74.989,96.351a3.235,3.235,0,0,1-5.144,1.241c-9.754-8.5-36.3-29.956-62.4-36.385a3.25,3.25,0,0,1-.875-5.983c23.775-13.578,97.22-53.981,140.536-60.629A3.249,3.249,0,0,1,733.637,104.058Z" transform="translate(17.509 6.615)" fill="#fe6263" opacity="0.15"/>
        <path id="Path_36" data-name="Path 36" d="M732.68,94.424c-29.089,10.179-115.8,41.789-138.674,64.529a2.622,2.622,0,0,1-4.253-.734c-4.319-9.414-17.279-33.889-37.381-39.347a2.624,2.624,0,0,1-.379-4.951c24.51-10.421,98.4-37.435,180.2-24.576A2.628,2.628,0,0,1,732.68,94.424Z" transform="translate(5.583 2.659)" fill="#fe6263" opacity="0.15"/>
      </g>
    </g>
    <path id="Path_11" data-name="Path 11" d="M647,259s5-5,0-7c0,0-15,2-17,5s3,3,3,3-9,6,0,7c0,0-10,7,1,7,0,0-4,1-4,3s12,2,12,2,6-1.5,0-4.75c0,0,8-1.25,2-6.25C644,268,652,267,647,259Z" transform="translate(357 360.57)" fill="#ffdaad"/>
    <rect id="Rectangle_2" data-name="Rectangle 2" width="44" height="16" transform="translate(829 776)" fill="#454548"/>
    <rect id="Rectangle_3" data-name="Rectangle 3" width="44" height="16" transform="translate(838 802)" fill="#454548"/>
    <rect id="Rectangle_4" data-name="Rectangle 4" width="44" height="16" transform="translate(838 830)" fill="#454548"/>
    <rect id="Rectangle_5" data-name="Rectangle 5" width="44" height="16" transform="translate(837 857)" fill="#454548"/>
    <rect id="Rectangle_6" data-name="Rectangle 6" width="38" height="16" transform="translate(823 882)" fill="#454548"/>
  </g>
</svg>
